# xmcd
#
# Track frame offsets:
#	150
#	16991
#	36157
#	52913
#	70217
#	86810
#	103437
#	121491
#	139947
#	158182
#	178597
#	194146
#	213234
#	228956
#	245829
#
# Disc length: 3495 seconds
#
# Revision: 0
# Processed by: cddbd v1.5.1PL0 Copyright (c) Steve Scherf et al.
# Submitted via: audiograbber 1.83.01
#
DISCID=de0da50f
DTITLE=Various Artist - Best Of Country Male
DYEAR=2001
DGENRE=Karaoke
TTITLE0=Mark McGuinn - Mrs Steven Rudy
TTITLE1=Alan Jackson - Where I Come From
TTITLE2=Aaron Tippin - People Like Us
TTITLE3=Diamond Rio - One More Day
TTITLE4=Keith Urban - Where The Blacktop Ends
TTITLE5=Kenny Chesney - Dont Happen Twice
TTITLE6=Tim Rushlow - She Misses Him
TTITLE7=Aaron Tippin - Where The Stars And Stripes And Eagles Fly
TTITLE8=Phil Vassar - Rose Bouquet
TTITLE9=Brooks and Dunn - Only In America
TTITLE10=Chris Cagle - My Love Goes On And On
TTITLE11=Billy Gilman - Oklahoma
TTITLE12=Darryl Worley - A Good Day To Run
TTITLE13=Steve Holy - Good Morning Beautiful
TTITLE14=Tim McGraw - Things Change
EXTD=
EXTT0=
EXTT1=
EXTT2=
EXTT3=
EXTT4=
EXTT5=
EXTT6=
EXTT7=
EXTT8=
EXTT9=
EXTT10=
EXTT11=
EXTT12=
EXTT13=
EXTT14=
PLAYORDER=
